<svg width="23" height="22" viewBox="0 0 23 22" fill="none" xmlns="http://www.w3.org/2000/svg">
<path d="M22.0715 11.0071C22.0752 13.4329 21.2629 15.7897 19.7646 17.7001C18.2663 19.6104 16.1687 20.9637 13.8079 21.5432C11.4471 22.1227 8.95973 21.8948 6.74417 20.8961C4.52862 19.8973 2.71314 18.1855 1.58856 16.0348C0.463975 13.8842 0.0953769 11.4191 0.541808 9.0346C0.988239 6.65007 2.22386 4.48404 4.05074 2.8835C5.87762 1.28296 8.19003 0.340538 10.6175 0.207198C13.045 0.0738577 15.4472 0.757319 17.4391 2.1481L17.3064 1.76292C17.204 1.45167 17.2297 1.11259 17.3779 0.820263C17.5261 0.52794 17.7846 0.306326 18.0965 0.204171C18.4085 0.102017 18.7483 0.12769 19.0413 0.275545C19.3343 0.423399 19.5564 0.681322 19.6588 0.992574L20.8651 4.60358C20.9249 4.78459 20.9408 4.97719 20.9114 5.16553C20.8821 5.35387 20.8083 5.53255 20.6962 5.68688C20.5794 5.85097 20.4233 5.98322 20.242 6.07153C20.0608 6.15985 19.8603 6.20141 19.6588 6.19242H16.0397C15.7198 6.19242 15.4129 6.06561 15.1867 5.83988C14.9605 5.61414 14.8334 5.30799 14.8334 4.98875C14.8377 4.73398 14.923 4.48716 15.0769 4.28383C15.2308 4.08051 15.4455 3.93116 15.6899 3.85731C14.103 2.86769 12.2316 2.43206 10.3696 2.61885C8.50762 2.80563 6.76057 3.60424 5.40286 4.88925C4.04515 6.17425 3.1537 7.87285 2.86851 9.71824C2.58333 11.5636 2.92057 13.4513 3.82728 15.0847C4.73398 16.718 6.15877 18.0047 7.87787 18.7424C9.59696 19.4801 11.513 19.6272 13.3249 19.1605C15.1369 18.6938 16.7422 17.6398 17.8886 16.164C19.035 14.6882 19.6577 12.8743 19.6588 11.0071C19.6588 10.6879 19.7859 10.3817 20.0121 10.156C20.2383 9.93024 20.5452 9.80343 20.8651 9.80343C21.185 9.80343 21.4919 9.93024 21.7181 10.156C21.9444 10.3817 22.0715 10.6879 22.0715 11.0071Z" fill="white"/>
</svg>
