<svg width="46" height="46" viewBox="0 0 46 46" fill="none" xmlns="http://www.w3.org/2000/svg">
<path fill-rule="evenodd" clip-rule="evenodd" d="M3.78472 17.2387C3.55112 18.0177 2.73218 18.4594 1.95161 18.2258C1.17256 17.9922 0.730886 17.1717 0.964483 16.3927C3.85812 6.74081 12.92 0 23.0001 0C33.081 0 42.142 6.74081 45.0357 16.3936C45.2692 17.1726 44.8268 17.9931 44.0485 18.2267C43.9074 18.2681 43.7654 18.2889 43.6259 18.2889C42.992 18.2889 42.4076 17.8767 42.2154 17.2396C39.6926 8.82189 31.7909 2.94306 23.0001 2.94306C14.2101 2.94306 6.30757 8.82189 3.78472 17.2387ZM42.1532 28.9713C42.3956 28.1946 43.22 27.7625 43.9966 28.0033C44.7732 28.2457 45.2062 29.0701 44.9646 29.8467C41.9538 39.509 33.1279 45.9994 23 45.9994C12.8728 45.9994 4.04617 39.5082 1.03618 29.8459C0.794589 29.0693 1.22755 28.2449 2.00336 28.0025C2.78079 27.7601 3.6044 28.1938 3.84681 28.9705C6.47172 37.3953 14.1693 43.0565 23 43.0565C31.8307 43.0565 39.5282 37.3952 42.1532 28.9713ZM23.0001 24.9934C24.101 24.9934 24.9935 24.1009 24.9935 23C24.9935 21.8991 24.101 21.0066 23.0001 21.0066C21.8991 21.0066 21.0067 21.8991 21.0067 23C21.0067 24.1009 21.8991 24.9934 23.0001 24.9934ZM45.7767 23.7783C45.7653 23.7967 45.7536 23.8148 45.7413 23.8327C45.7232 23.8593 45.704 23.8851 45.6842 23.9106C45.6783 23.918 45.673 23.9259 45.6669 23.9332C45.6379 23.9687 45.6071 24.0022 45.5751 24.0347C45.5729 24.0368 45.5711 24.0392 45.569 24.0414L41.28 28.3303C40.993 28.6181 40.6166 28.7609 40.2403 28.7609C39.8632 28.7609 39.4868 28.6174 39.199 28.3303C38.6241 27.7546 38.6241 26.8234 39.199 26.2484L40.9755 24.4719H27.2284C26.4151 24.4719 25.7564 23.8133 25.7564 23C25.7564 22.1867 26.4159 21.5289 27.2284 21.5289H40.9747L39.1982 19.7524C38.6232 19.1766 38.6232 18.2454 39.1982 17.6705C39.7731 17.0956 40.7051 17.0956 41.2792 17.6705L45.5606 21.9519L45.5645 21.9554L45.569 21.9594C45.573 21.9634 45.5768 21.9675 45.5804 21.9717L45.5863 21.9784L45.5943 21.9876L45.5994 21.993C45.6173 22.0122 45.6353 22.0314 45.6521 22.0513C45.6672 22.0691 45.6814 22.0874 45.6955 22.1058C45.7069 22.1207 45.7179 22.1357 45.7286 22.1509C45.7434 22.1716 45.758 22.1924 45.7716 22.2138C45.7766 22.2217 45.781 22.2299 45.7859 22.2378C45.816 22.2874 45.8428 22.3381 45.8666 22.3901L45.8711 22.3999L45.8769 22.4124C45.8888 22.4398 45.8996 22.4675 45.9099 22.4954L45.9171 22.516L45.9194 22.5227C45.9505 22.6131 45.9724 22.7058 45.9853 22.7997L45.9867 22.8088C45.9875 22.814 45.9883 22.8192 45.9889 22.8244C45.9923 22.8527 45.9946 22.881 45.9964 22.9093C45.9972 22.9209 45.9976 22.9325 45.9981 22.944L45.9981 22.9444C45.9992 22.973 46 23.0017 45.9993 23.0305L45.999 23.0387L45.9987 23.0444C45.9966 23.1117 45.9903 23.1787 45.979 23.2453L45.9787 23.2476C45.9731 23.2802 45.966 23.3126 45.9583 23.3448L45.9543 23.361C45.9216 23.4906 45.871 23.6165 45.8023 23.7351L45.7885 23.7589L45.7767 23.7783ZM4.72001 28.3296C5.00707 28.6167 5.38343 28.7602 5.76051 28.7602C6.13759 28.7602 6.51404 28.6174 6.801 28.3296C7.37592 27.7547 7.37592 26.8235 6.801 26.2477L5.0245 24.4712H18.7716C19.5849 24.4712 20.2435 23.8134 20.2435 23.0001C20.2435 22.1868 19.5849 21.5282 18.7716 21.5282H5.02531L6.80019 19.7508C7.37511 19.1759 7.37511 18.2447 6.80019 17.669C6.22608 17.094 5.29403 17.094 4.71911 17.669L0.430268 21.958C0.39451 21.9937 0.361716 22.0316 0.33036 22.0702L0.329642 22.0711C0.299454 22.1083 0.271152 22.1467 0.244918 22.1863L0.241324 22.1916C0.189933 22.2699 0.146537 22.3524 0.111318 22.4379L0.103951 22.4564C0.0888568 22.4946 0.0752003 22.5333 0.0633408 22.5724L0.0596572 22.5842C0.0336919 22.6727 0.016262 22.7634 0.0071876 22.8551L0.00646883 22.8628C0.00224614 22.9079 0 22.9531 0 22.9986V22.9998C0 23.0919 0.00871497 23.1842 0.0262348 23.2757L0.0291098 23.2893C0.0368365 23.3274 0.0460905 23.3653 0.056872 23.403L0.0586224 23.4092C0.0605341 23.416 0.0624422 23.4228 0.0645088 23.4296C0.0757394 23.4661 0.0884076 23.5025 0.102603 23.5384L0.105195 23.5455C0.106543 23.5493 0.107885 23.553 0.109431 23.5567L0.111408 23.5621C0.1274 23.6007 0.14528 23.6382 0.164237 23.6749C0.167294 23.6808 0.170567 23.6866 0.173839 23.6924L0.180678 23.7047C0.19694 23.7346 0.214101 23.7637 0.23225 23.7921C0.238898 23.8025 0.245547 23.8128 0.252465 23.8231C0.275555 23.8573 0.299723 23.8905 0.325509 23.9224L0.32804 23.9258L0.331259 23.93C0.360548 23.9659 0.391725 24.0001 0.424069 24.0329L0.427528 24.0367L0.430987 24.0406L4.72001 28.3296ZM22.6507 5.16219C25.4686 5.16219 28.481 6.97293 28.481 12.0545C28.4802 17.1344 25.4678 18.9452 22.65 18.9452H20.0427C19.2382 18.9452 18.5827 18.2993 18.5708 17.4956L18.4113 6.6556C18.4057 6.26172 18.558 5.8814 18.8347 5.60073C19.1113 5.32005 19.4893 5.16219 19.8832 5.16219H22.6507ZM21.4938 16.0014H22.6507C25.0357 16.0014 25.5364 13.8549 25.5364 12.0538C25.5364 10.2525 25.0356 8.10525 22.6507 8.10525H21.3766L21.4938 16.0014Z" fill="white"/>
</svg>
