<svg width="29" height="35" viewBox="0 0 29 35" fill="none" xmlns="http://www.w3.org/2000/svg">
<path fill-rule="evenodd" clip-rule="evenodd" d="M12.2953 31.038H22.6608C23.7281 31.038 24.5943 30.1718 24.5943 29.1046V3.96199V1.93348C24.5943 0.866228 23.7281 0 22.6608 0H12.2953H8.84868V0.63962C8.85596 0.705409 8.85965 0.774854 8.85965 0.844298V5.05848V6.14035C8.85965 7.64254 7.63889 8.8633 6.13669 8.8633H5.05482H0.840643C0.785819 8.8633 0.727339 8.85965 0.672514 8.85599H0V29.1046C0 30.1718 0.866228 31.038 1.93348 31.038H4.05336H12.2953ZM12.6864 24.4664H5.92836C5.42398 24.4664 5.01462 24.057 5.01462 23.5526C5.01462 23.0482 5.42398 22.6389 5.92836 22.6389H12.6901C13.1944 22.6389 13.6038 23.0482 13.6038 23.5526C13.6038 24.057 13.1908 24.4664 12.6864 24.4664ZM19.4481 19.8027H5.92836C5.42398 19.8027 5.01462 19.3933 5.01462 18.8889C5.01462 18.3845 5.42398 17.9752 5.92836 17.9752H19.4481C19.9525 17.9752 20.3618 18.3845 20.3618 18.8889C20.3618 19.3933 19.9525 19.8027 19.4481 19.8027ZM5.92836 13.0227H19.4481C19.9525 13.0227 20.3618 13.432 20.3618 13.9364C20.3618 14.4408 19.9525 14.8501 19.4481 14.8501H5.92836C5.42398 14.8501 5.01462 14.4408 5.01462 13.9364C5.01462 13.432 5.42398 13.0227 5.92836 13.0227ZM26.7179 3.9627H25.6945V29.1053C25.6945 30.7756 24.3348 32.1352 22.6646 32.1352H12.2954H4.04976V33.0672C4.04976 34.1345 4.91598 35.0007 5.98323 35.0007H16.3487H26.7142C27.7815 35.0007 28.6477 34.1345 28.6477 33.0672V5.89618C28.6477 4.82893 27.7851 3.9627 26.7179 3.9627ZM6.13672 7.76748H0.840665C0.113326 7.76748 -0.248516 6.89029 0.26318 6.37859L6.37067 0.271135C6.5388 0.103007 6.73982 0.0299072 6.94085 0.0299072C7.35748 0.0299072 7.75952 0.3552 7.75952 0.844966V6.14467V6.15929C7.75221 7.0438 7.03584 7.76017 6.15134 7.76748H6.13672Z" fill="white"/>
</svg>
