<svg width="14" height="14" viewBox="0 0 14 14" fill="none" xmlns="http://www.w3.org/2000/svg">
<circle cx="7" cy="7" r="7" fill="#DBC60D"/>
<path d="M6.63636 4.64286V9.35714C6.63636 9.52764 6.5789 9.69115 6.4766 9.81171C6.37431 9.93227 6.23557 10 6.09091 10H5.54545C5.40079 10 5.26205 9.93227 5.15976 9.81171C5.05747 9.69115 5 9.52764 5 9.35714V4.64286C5 4.47236 5.05747 4.30885 5.15976 4.18829C5.26205 4.06773 5.40079 4 5.54545 4H6.09091C6.23557 4 6.37431 4.06773 6.4766 4.18829C6.5789 4.30885 6.63636 4.47236 6.63636 4.64286ZM8.45455 4H7.90909C7.76443 4 7.62569 4.06773 7.5234 4.18829C7.4211 4.30885 7.36364 4.47236 7.36364 4.64286V9.35714C7.36364 9.52764 7.4211 9.69115 7.5234 9.81171C7.62569 9.93227 7.76443 10 7.90909 10H8.45455C8.59921 10 8.73795 9.93227 8.84024 9.81171C8.94253 9.69115 9 9.52764 9 9.35714V4.64286C9 4.47236 8.94253 4.30885 8.84024 4.18829C8.73795 4.06773 8.59921 4 8.45455 4Z" fill="white"/>
</svg>
