<svg width="144" height="39" viewBox="0 0 144 39" fill="none" xmlns="http://www.w3.org/2000/svg">
<circle cx="11.9397" cy="3.11234" r="2.57523" fill="white"/>
<circle cx="11.9397" cy="35.8877" r="2.57523" fill="white"/>
<circle cx="30.6689" cy="3.11234" r="2.57523" fill="white"/>
<circle cx="30.6689" cy="35.8877" r="2.57523" fill="white"/>
<circle cx="21.7723" cy="30.2691" r="2.10701" fill="white"/>
<circle cx="21.7723" cy="7.79451" r="2.10701" fill="white"/>
<circle cx="32.0737" cy="12.9449" r="2.10701" fill="white"/>
<circle cx="11.4715" cy="12.9449" r="2.10701" fill="white"/>
<circle cx="32.0737" cy="25.1187" r="2.10701" fill="white"/>
<circle cx="11.4715" cy="25.1187" r="2.10701" fill="white"/>
<circle cx="40.0329" cy="19.4991" r="2.57523" fill="white"/>
<circle cx="2.57523" cy="19.4991" r="2.57523" fill="white"/>
<path fill-rule="evenodd" clip-rule="evenodd" d="M3.49195 19.5006L12.5183 35.3302H30.5583L39.5846 19.5006L30.5583 3.67112L12.5183 3.67112L3.49195 19.5006ZM12.1738 3.07813L2.80933 19.5006L12.1738 35.9231H30.9028L40.2673 19.5006L30.9028 3.07812L12.1738 3.07813Z" fill="white"/>
<path fill-rule="evenodd" clip-rule="evenodd" d="M21.7726 7.60298L11.6823 13.3208V24.7422L21.7726 30.4601L31.8629 24.7422V13.3208L21.7726 7.60298ZM32.3076 13.0617L21.7726 7.0918L11.2375 13.0617V25.0014L21.7726 30.9712L32.3076 25.0014V13.0617Z" fill="white"/>
<path fill-rule="evenodd" clip-rule="evenodd" d="M21.5503 19.2317L21.5503 18.7969H21.995V19.2317L21.5503 19.2317ZM21.5503 20.9708L21.5503 20.1012H21.995V20.9708H21.5503ZM21.5503 22.7099L21.5503 21.8403H21.995L21.995 22.7099H21.5503ZM21.5503 24.449L21.5503 23.5795H21.995L21.995 24.449H21.5503ZM21.5503 26.1881L21.5503 25.3186H21.995L21.995 26.1881H21.5503ZM21.5503 27.9273L21.5503 27.0577H21.995L21.995 27.9273H21.5503ZM21.5503 29.6664L21.5503 28.7968H21.995L21.995 29.6664H21.5503ZM21.5503 30.9707L21.5503 30.5359H21.995L21.995 30.9707H21.5503Z" fill="white"/>
<path fill-rule="evenodd" clip-rule="evenodd" d="M32.5435 12.6996L32.1669 12.917L31.9446 12.5318L32.3211 12.3145L32.5435 12.6996ZM31.4139 13.3518L30.6608 13.7866L30.4384 13.4014L31.1915 12.9666L31.4139 13.3518ZM29.9078 14.2213L29.1547 14.6561L28.9323 14.271L29.6854 13.8362L29.9078 14.2213ZM28.4016 15.0909L27.6486 15.5257L27.4262 15.1405L28.1793 14.7057L28.4016 15.0909ZM26.8955 15.9605L26.1425 16.3952L25.9201 16.0101L26.6731 15.5753L26.8955 15.9605ZM25.3894 16.83L24.6363 17.2648L24.414 16.8796L25.167 16.4449L25.3894 16.83ZM23.8833 17.6996L23.1302 18.1344L22.9078 17.7492L23.6609 17.3144L23.8833 17.6996Z" fill="white"/>
<path fill-rule="evenodd" clip-rule="evenodd" d="M11.4083 13.3171L11.0239 13.1138L11.2319 12.7207L11.6162 12.924L11.4083 13.3171ZM12.9456 14.1302L12.1769 13.7237L12.3849 13.3305L13.1535 13.7371L12.9456 14.1302ZM14.4829 14.9434L13.7142 14.5368L13.9222 14.1437L14.6908 14.5502L14.4829 14.9434ZM16.0202 15.7565L15.2516 15.3499L15.4595 14.9568L16.2282 15.3634L16.0202 15.7565ZM17.5575 16.5696L16.7889 16.1631L16.9968 15.7699L17.7655 16.1765L17.5575 16.5696ZM19.0949 17.3828L18.3262 16.9762L18.5341 16.5831L19.3028 16.9896L19.0949 17.3828ZM20.6322 18.1959L19.8635 17.7893L20.0715 17.3962L20.8401 17.8027L20.6322 18.1959Z" fill="white"/>
<path d="M53.2419 2.16797L58.4216 10.5262H58.5786L63.7583 2.16797H66.6228L60.3051 12.2135L66.6228 22.259H63.7583L58.5786 14.0578H58.4216L53.2419 22.259H50.3773L56.852 12.2135L50.3773 2.16797H53.2419Z" fill="white"/>
<path d="M75.0105 22.573C73.5586 22.573 72.3062 22.2525 71.2532 21.6116C70.2068 20.9641 69.3991 20.0616 68.8301 18.904C68.2677 17.7399 67.9864 16.3861 67.9864 14.8426C67.9864 13.2992 68.2677 11.9388 68.8301 10.7616C69.3991 9.57786 70.1904 8.65571 71.2042 7.99517C72.2244 7.32808 73.4147 6.99454 74.775 6.99454C75.5598 6.99454 76.3348 7.12534 77.1 7.38694C77.8652 7.64854 78.5617 8.07365 79.1896 8.66225C79.8174 9.24432 80.3177 10.016 80.6905 10.9774C81.0633 11.9388 81.2497 13.1226 81.2497 14.5287V15.5097H69.6345V13.5084H78.8953C78.8953 12.6582 78.7252 11.8996 78.3851 11.2325C78.0516 10.5654 77.5742 10.0389 76.9529 9.65307C76.3381 9.26721 75.6122 9.07428 74.775 9.07428C73.8529 9.07428 73.055 9.30318 72.3814 9.76098C71.7143 10.2122 71.2009 10.8009 70.8412 11.5268C70.4815 12.2527 70.3016 13.031 70.3016 13.8616V15.1958C70.3016 16.3338 70.4978 17.2984 70.8902 18.0898C71.2892 18.8746 71.8418 19.473 72.5481 19.885C73.2545 20.2905 74.0752 20.4932 75.0105 20.4932C75.6187 20.4932 76.1681 20.4082 76.6586 20.2382C77.1556 20.0616 77.584 19.8 77.9437 19.4534C78.3034 19.1002 78.5813 18.662 78.7775 18.1388L81.0142 18.7667C80.7788 19.5253 80.3831 20.1924 79.8272 20.7679C79.2713 21.3369 78.5846 21.7816 77.7671 22.1021C76.9496 22.416 76.0307 22.573 75.0105 22.573Z" fill="white"/>
<path d="M87.0867 13.1945V22.259H84.7715V7.19074H87.0082V9.54516H87.2044C87.5576 8.77998 88.0939 8.16521 88.8133 7.70086C89.5327 7.22998 90.4614 6.99454 91.5993 6.99454C92.6196 6.99454 93.5123 7.20382 94.2775 7.62238C95.0427 8.03441 95.6378 8.66225 96.0629 9.50592C96.488 10.3431 96.7006 11.4025 96.7006 12.6844V22.259H94.3854V12.8414C94.3854 11.6576 94.078 10.7355 93.4633 10.0749C92.8485 9.40782 92.0048 9.07428 90.9323 9.07428C90.1932 9.07428 89.5327 9.23451 88.9506 9.55497C88.3751 9.87544 87.9206 10.3431 87.587 10.9578C87.2535 11.5726 87.0867 12.3181 87.0867 13.1945Z" fill="white"/>
<path d="M107.249 22.573C105.797 22.573 104.545 22.2525 103.492 21.6116C102.445 20.9641 101.638 20.0616 101.069 18.904C100.506 17.7399 100.225 16.3861 100.225 14.8426C100.225 13.2992 100.506 11.9388 101.069 10.7616C101.638 9.57786 102.429 8.65571 103.443 7.99517C104.463 7.32808 105.653 6.99454 107.013 6.99454C107.798 6.99454 108.573 7.12534 109.338 7.38694C110.104 7.64854 110.8 8.07365 111.428 8.66225C112.056 9.24432 112.556 10.016 112.929 10.9774C113.302 11.9388 113.488 13.1226 113.488 14.5287V15.5097H101.873V13.5084H111.134C111.134 12.6582 110.964 11.8996 110.624 11.2325C110.29 10.5654 109.813 10.0389 109.191 9.65307C108.577 9.26721 107.851 9.07428 107.013 9.07428C106.091 9.07428 105.293 9.30318 104.62 9.76098C103.953 10.2122 103.439 10.8009 103.08 11.5268C102.72 12.2527 102.54 13.031 102.54 13.8616V15.1958C102.54 16.3338 102.736 17.2984 103.129 18.0898C103.528 18.8746 104.08 19.473 104.787 19.885C105.493 20.2905 106.314 20.4932 107.249 20.4932C107.857 20.4932 108.406 20.4082 108.897 20.2382C109.394 20.0616 109.822 19.8 110.182 19.4534C110.542 19.1002 110.82 18.662 111.016 18.1388L113.253 18.7667C113.017 19.5253 112.622 20.1924 112.066 20.7679C111.51 21.3369 110.823 21.7816 110.006 22.1021C109.188 22.416 108.269 22.573 107.249 22.573Z" fill="white"/>
<path d="M127.683 10.5654L125.604 11.154C125.473 10.8074 125.28 10.4706 125.025 10.1436C124.776 9.81004 124.436 9.53535 124.005 9.31953C123.573 9.10371 123.02 8.9958 122.347 8.9958C121.424 8.9958 120.656 9.20835 120.041 9.63345C119.433 10.052 119.129 10.585 119.129 11.2325C119.129 11.808 119.338 12.2626 119.757 12.5961C120.175 12.9296 120.829 13.2076 121.719 13.43L123.955 13.9793C125.303 14.3063 126.307 14.8066 126.967 15.4803C127.628 16.1474 127.958 17.0074 127.958 18.0603C127.958 18.9236 127.709 19.6953 127.212 20.3755C126.722 21.0557 126.035 21.592 125.152 21.9844C124.269 22.3768 123.243 22.573 122.072 22.573C120.535 22.573 119.263 22.2394 118.256 21.5723C117.249 20.9053 116.611 19.9308 116.343 18.6489L118.54 18.0996C118.75 18.9105 119.145 19.5188 119.727 19.9242C120.316 20.3297 121.084 20.5325 122.033 20.5325C123.112 20.5325 123.969 20.3036 124.603 19.8458C125.244 19.3814 125.564 18.8255 125.564 18.178C125.564 17.6548 125.381 17.2167 125.015 16.8635C124.649 16.5038 124.086 16.2356 123.328 16.0591L120.816 15.4705C119.436 15.1435 118.423 14.6366 117.775 13.9499C117.134 13.2566 116.814 12.3901 116.814 11.3502C116.814 10.5 117.052 9.7479 117.53 9.0939C118.014 8.43989 118.671 7.9265 119.502 7.55371C120.339 7.18093 121.287 6.99454 122.347 6.99454C123.838 6.99454 125.008 7.32154 125.859 7.97555C126.715 8.62955 127.324 9.49284 127.683 10.5654Z" fill="white"/>
<path d="M137.761 22.573C136.309 22.573 135.056 22.2525 134.003 21.6116C132.957 20.9641 132.149 20.0616 131.58 18.904C131.018 17.7399 130.737 16.3861 130.737 14.8426C130.737 13.2992 131.018 11.9388 131.58 10.7616C132.149 9.57786 132.941 8.65571 133.954 7.99517C134.975 7.32808 136.165 6.99454 137.525 6.99454C138.31 6.99454 139.085 7.12534 139.85 7.38694C140.615 7.64854 141.312 8.07365 141.94 8.66225C142.568 9.24432 143.068 10.016 143.441 10.9774C143.814 11.9388 144 13.1226 144 14.5287V15.5097H132.385V13.5084H141.646C141.646 12.6582 141.476 11.8996 141.135 11.2325C140.802 10.5654 140.324 10.0389 139.703 9.65307C139.088 9.26721 138.362 9.07428 137.525 9.07428C136.603 9.07428 135.805 9.30318 135.132 9.76098C134.465 10.2122 133.951 10.8009 133.591 11.5268C133.232 12.2527 133.052 13.031 133.052 13.8616V15.1958C133.052 16.3338 133.248 17.2984 133.641 18.0898C134.039 18.8746 134.592 19.473 135.298 19.885C136.005 20.2905 136.826 20.4932 137.761 20.4932C138.369 20.4932 138.918 20.4082 139.409 20.2382C139.906 20.0616 140.334 19.8 140.694 19.4534C141.054 19.1002 141.332 18.662 141.528 18.1388L143.765 18.7667C143.529 19.5253 143.133 20.1924 142.578 20.7679C142.022 21.3369 141.335 21.7816 140.517 22.1021C139.7 22.416 138.781 22.573 137.761 22.573Z" fill="white"/>
<path d="M49.8916 36.774V26.8987H53.3441C54.032 26.8987 54.5994 27.0176 55.0462 27.2555C55.4931 27.4902 55.8258 27.8068 56.0444 28.2054C56.263 28.6008 56.3723 29.0396 56.3723 29.5218C56.3723 29.9461 56.2967 30.2965 56.1456 30.573C55.9978 30.8494 55.8017 31.068 55.5573 31.2288C55.3163 31.3895 55.0543 31.5084 54.7714 31.5856V31.682C55.0736 31.7013 55.3773 31.8074 55.6827 32.0003C55.9881 32.1931 56.2437 32.4696 56.4494 32.8296C56.6551 33.1897 56.758 33.6301 56.758 34.1508C56.758 34.6459 56.6455 35.0911 56.4205 35.4865C56.1954 35.8819 55.8402 36.1953 55.3548 36.4268C54.8694 36.6582 54.2378 36.774 53.4598 36.774H49.8916ZM51.0874 35.7131H53.4598C54.241 35.7131 54.7955 35.5621 55.1234 35.2599C55.4545 34.9545 55.62 34.5848 55.62 34.1508C55.62 33.8165 55.5348 33.5079 55.3645 33.225C55.1941 32.9389 54.9514 32.7107 54.6364 32.5403C54.3213 32.3667 53.9484 32.2799 53.5177 32.2799H51.0874V35.7131ZM51.0874 31.2384H53.3055C53.6656 31.2384 53.9902 31.1677 54.2795 31.0262C54.5721 30.8848 54.8035 30.6855 54.9739 30.4283C55.1475 30.1712 55.2343 29.869 55.2343 29.5218C55.2343 29.0878 55.0832 28.7198 54.781 28.4176C54.4788 28.1122 53.9999 27.9595 53.3441 27.9595H51.0874V31.2384Z" fill="white"/>
<path d="M61.5775 36.9283C60.8832 36.9283 60.2852 36.7643 59.7838 36.4364C59.2823 36.1085 58.8965 35.6569 58.6265 35.0815C58.3565 34.5061 58.2215 33.8487 58.2215 33.1093C58.2215 32.3571 58.3597 31.6933 58.6361 31.1179C58.9158 30.5392 59.3048 30.0876 59.803 29.7629C60.3045 29.435 60.8896 29.2711 61.5582 29.2711C62.079 29.2711 62.5483 29.3675 62.9662 29.5604C63.3841 29.7533 63.7265 30.0233 63.9933 30.3705C64.2601 30.7176 64.4257 31.1227 64.4899 31.5856H63.352C63.2652 31.2481 63.0723 30.9491 62.7733 30.6887C62.4776 30.4251 62.079 30.2933 61.5775 30.2933C61.1339 30.2933 60.7449 30.409 60.4106 30.6405C60.0795 30.8687 59.8207 31.1918 59.6343 31.6097C59.451 32.0244 59.3594 32.5114 59.3594 33.0707C59.3594 33.6429 59.4494 34.1412 59.6295 34.5655C59.8127 34.9899 60.0699 35.3194 60.401 35.554C60.7353 35.7887 61.1275 35.906 61.5775 35.906C61.8733 35.906 62.1417 35.8546 62.3828 35.7517C62.6239 35.6488 62.828 35.501 62.9951 35.3081C63.1623 35.1152 63.2812 34.8838 63.352 34.6137H64.4899C64.4257 35.0509 64.2665 35.4447 64.0126 35.7951C63.7618 36.1423 63.4291 36.4187 63.0144 36.6245C62.603 36.827 62.124 36.9283 61.5775 36.9283Z" fill="white"/>
<path d="M66.3078 36.774V26.8987H69.6446C70.4193 26.8987 71.0526 27.0385 71.5444 27.3182C72.0394 27.5946 72.4059 27.9692 72.6438 28.4417C72.8817 28.9142 73.0006 29.4414 73.0006 30.0233C73.0006 30.6051 72.8817 31.1339 72.6438 31.6097C72.4091 32.0855 72.0459 32.4648 71.554 32.7477C71.0622 33.0273 70.4321 33.1672 69.6639 33.1672H67.2722V32.1064H69.6253C70.1557 32.1064 70.5816 32.0147 70.9031 31.8315C71.2245 31.6483 71.4576 31.4007 71.6023 31.0889C71.7501 30.7739 71.8241 30.4187 71.8241 30.0233C71.8241 29.6279 71.7501 29.2743 71.6023 28.9625C71.4576 28.6506 71.2229 28.4063 70.8983 28.2295C70.5736 28.0495 70.1428 27.9595 69.606 27.9595H67.5036V36.774H66.3078Z" fill="white"/>
<path d="M76.9522 36.9476C76.4828 36.9476 76.0569 36.8591 75.6744 36.6823C75.2918 36.5023 74.988 36.2436 74.763 35.906C74.538 35.5653 74.4255 35.1538 74.4255 34.6716C74.4255 34.2473 74.5091 33.9033 74.6762 33.6397C74.8434 33.3729 75.0668 33.164 75.3465 33.0129C75.6261 32.8618 75.9348 32.7493 76.2723 32.6753C76.613 32.5982 76.9554 32.5371 77.2994 32.4921C77.7494 32.4342 78.1143 32.3908 78.3939 32.3619C78.6768 32.3298 78.8825 32.2767 79.0111 32.2028C79.1429 32.1289 79.2088 32.0003 79.2088 31.817V31.7785C79.2088 31.3027 79.0786 30.933 78.8183 30.6694C78.5611 30.4058 78.1705 30.274 77.6465 30.274C77.1033 30.274 76.6773 30.393 76.3687 30.6308C76.0601 30.8687 75.8431 31.1227 75.7178 31.3927L74.6377 31.007C74.8305 30.5569 75.0877 30.2065 75.4092 29.9558C75.7338 29.7018 76.0874 29.525 76.47 29.4254C76.8557 29.3225 77.2351 29.2711 77.608 29.2711C77.8458 29.2711 78.1191 29.3 78.4277 29.3579C78.7395 29.4125 79.0401 29.5266 79.3294 29.7002C79.6219 29.8738 79.8646 30.1358 80.0575 30.4862C80.2504 30.8366 80.3468 31.3059 80.3468 31.8942V36.774H79.2088V35.771H79.151C79.0738 35.9317 78.9452 36.1037 78.7652 36.2869C78.5852 36.4702 78.3457 36.6261 78.0468 36.7547C77.7478 36.8833 77.3829 36.9476 76.9522 36.9476ZM77.1258 35.9253C77.5758 35.9253 77.9551 35.8369 78.2637 35.6601C78.5756 35.4833 78.8102 35.2551 78.9677 34.9754C79.1285 34.6957 79.2088 34.4016 79.2088 34.093V33.0514C79.1606 33.1093 79.0545 33.1623 78.8906 33.2106C78.7299 33.2556 78.5434 33.2958 78.3312 33.3311C78.1223 33.3633 77.9182 33.3922 77.7189 33.4179C77.5228 33.4404 77.3636 33.4597 77.2415 33.4758C76.9457 33.5143 76.6693 33.577 76.4121 33.6638C76.1582 33.7474 75.9524 33.8744 75.7949 34.0448C75.6406 34.2119 75.5635 34.4402 75.5635 34.7295C75.5635 35.1249 75.7097 35.4238 76.0023 35.6263C76.298 35.8257 76.6725 35.9253 77.1258 35.9253Z" fill="white"/>
<path d="M84.6033 36.9476C84.134 36.9476 83.7081 36.8591 83.3255 36.6823C82.943 36.5023 82.6392 36.2436 82.4142 35.906C82.1892 35.5653 82.0767 35.1538 82.0767 34.6716C82.0767 34.2473 82.1602 33.9033 82.3274 33.6397C82.4946 33.3729 82.718 33.164 82.9976 33.0129C83.2773 32.8618 83.5859 32.7493 83.9235 32.6753C84.2642 32.5982 84.6066 32.5371 84.9505 32.4921C85.4006 32.4342 85.7654 32.3908 86.0451 32.3619C86.328 32.3298 86.5337 32.2767 86.6623 32.2028C86.7941 32.1289 86.86 32.0003 86.86 31.817V31.7785C86.86 31.3027 86.7298 30.933 86.4694 30.6694C86.2123 30.4058 85.8217 30.274 85.2977 30.274C84.7544 30.274 84.3285 30.393 84.0199 30.6308C83.7113 30.8687 83.4943 31.1227 83.3689 31.3927L82.2888 31.007C82.4817 30.5569 82.7389 30.2065 83.0603 29.9558C83.385 29.7018 83.7386 29.525 84.1212 29.4254C84.5069 29.3225 84.8862 29.2711 85.2591 29.2711C85.497 29.2711 85.7702 29.3 86.0788 29.3579C86.3907 29.4125 86.6912 29.5266 86.9805 29.7002C87.2731 29.8738 87.5158 30.1358 87.7087 30.4862C87.9015 30.8366 87.998 31.3059 87.998 31.8942V36.774H86.86V35.771H86.8021C86.725 35.9317 86.5964 36.1037 86.4164 36.2869C86.2364 36.4702 85.9969 36.6261 85.6979 36.7547C85.399 36.8833 85.0341 36.9476 84.6033 36.9476ZM84.7769 35.9253C85.227 35.9253 85.6063 35.8369 85.9149 35.6601C86.2267 35.4833 86.4614 35.2551 86.6189 34.9754C86.7796 34.6957 86.86 34.4016 86.86 34.093V33.0514C86.8118 33.1093 86.7057 33.1623 86.5418 33.2106C86.381 33.2556 86.1946 33.2958 85.9824 33.3311C85.7735 33.3633 85.5693 33.3922 85.37 33.4179C85.1739 33.4404 85.0148 33.4597 84.8927 33.4758C84.5969 33.5143 84.3205 33.577 84.0633 33.6638C83.8093 33.7474 83.6036 33.8744 83.4461 34.0448C83.2918 34.2119 83.2146 34.4402 83.2146 34.7295C83.2146 35.1249 83.3609 35.4238 83.6534 35.6263C83.9492 35.8257 84.3237 35.9253 84.7769 35.9253Z" fill="white"/>
<path d="M95.6299 29.3675C95.572 28.8789 95.3373 28.4996 94.9259 28.2295C94.5144 27.9595 94.0097 27.8245 93.4118 27.8245C92.9746 27.8245 92.592 27.8952 92.2642 28.0367C91.9395 28.1781 91.6855 28.3726 91.5023 28.6201C91.3223 28.8676 91.2323 29.1489 91.2323 29.4639C91.2323 29.7275 91.295 29.9542 91.4203 30.1438C91.5489 30.3303 91.7129 30.4862 91.9122 30.6116C92.1115 30.7337 92.3204 30.835 92.539 30.9153C92.7576 30.9925 92.9585 31.0552 93.1417 31.1034L94.1447 31.3734C94.4019 31.4409 94.688 31.5342 95.003 31.6531C95.3213 31.772 95.625 31.9344 95.9143 32.1401C96.2069 32.3426 96.448 32.603 96.6376 32.9213C96.8273 33.2395 96.9221 33.6301 96.9221 34.093C96.9221 34.6266 96.7823 35.1088 96.5026 35.5396C96.2262 35.9703 95.8211 36.3127 95.2875 36.5666C94.7571 36.8206 94.1126 36.9476 93.3539 36.9476C92.6467 36.9476 92.0343 36.8334 91.5168 36.6052C91.0024 36.377 90.5974 36.0587 90.3016 35.6505C90.0091 35.2422 89.8436 34.768 89.805 34.228H91.0394C91.0715 34.6009 91.1969 34.9095 91.4155 35.1538C91.6373 35.3949 91.917 35.5749 92.2545 35.6939C92.5953 35.8096 92.9617 35.8674 93.3539 35.8674C93.8104 35.8674 94.2202 35.7935 94.5835 35.6456C94.9468 35.4945 95.2345 35.2856 95.4466 35.0188C95.6588 34.7488 95.7649 34.4337 95.7649 34.0737C95.7649 33.7458 95.6733 33.479 95.49 33.2733C95.3068 33.0675 95.0657 32.9004 94.7667 32.7718C94.4678 32.6432 94.1447 32.5307 93.7975 32.4342L92.5824 32.0871C91.8109 31.8653 91.2001 31.5486 90.7501 31.1371C90.3 30.7257 90.075 30.1872 90.075 29.5218C90.075 28.9689 90.2245 28.4867 90.5234 28.0752C90.8256 27.6605 91.2307 27.3391 91.7386 27.1108C92.2497 26.8794 92.8203 26.7637 93.4504 26.7637C94.0868 26.7637 94.6526 26.8778 95.1477 27.106C95.6427 27.331 96.0349 27.6397 96.3242 28.0318C96.6167 28.424 96.771 28.8692 96.7871 29.3675H95.6299Z" fill="white"/>
<path d="M99.999 27.5449H101.369V27.9055H100.91V29.0042H100.459V27.9055H99.999V27.5449ZM101.569 27.5449H102.162L102.391 28.4325L102.619 27.5449H103.21V29.0039H102.841V27.8914L102.556 29.0039H102.223L101.938 27.8914V29.0039H101.569V27.5449Z" fill="white"/>
<path fill-rule="evenodd" clip-rule="evenodd" d="M101.605 30.7111C102.911 30.7111 103.969 29.6524 103.969 28.3465C103.969 27.0405 102.911 25.9819 101.605 25.9819C100.299 25.9819 99.2403 27.0405 99.2403 28.3465C99.2403 29.6524 100.299 30.7111 101.605 30.7111ZM101.605 31.1558C103.156 31.1558 104.414 29.898 104.414 28.3465C104.414 26.7949 103.156 25.5371 101.605 25.5371C100.053 25.5371 98.7955 26.7949 98.7955 28.3465C98.7955 29.898 100.053 31.1558 101.605 31.1558Z" fill="white"/>
</svg>
