<svg width="10" height="20" viewBox="0 0 10 20" fill="none" xmlns="http://www.w3.org/2000/svg">
<path d="M9.42984 17.4496L9.12941 18.5348C8.22815 18.8492 7.50821 19.0884 6.97212 19.2529C6.43544 19.4179 5.81186 19.5 5.10137 19.5C4.01029 19.5 3.16164 19.2638 2.55636 18.7947C1.95108 18.3237 1.64835 17.7268 1.64835 17.0028C1.64835 16.7225 1.67032 16.4342 1.71599 16.1404C1.76204 15.8463 1.83527 15.5151 1.93548 15.1449L3.06182 11.6221C3.16202 11.2847 3.2472 10.9651 3.31541 10.6628C3.38459 10.3625 3.41793 10.0861 3.41793 9.83729C3.41793 9.3874 3.31252 9.07271 3.10267 8.89578C2.89282 8.71936 2.49238 8.62979 1.8979 8.62979C1.60673 8.62979 1.30746 8.671 1.00241 8.7507C0.696018 8.83073 0.434137 8.90804 0.214264 8.9799L0.515457 7.89382C1.25331 7.62834 1.9586 7.40101 2.63325 7.21233C3.3079 7.02315 3.94535 6.92847 4.54832 6.92847C5.63188 6.92847 6.46801 7.15988 7.05517 7.62272C7.64233 8.0859 7.93582 8.68633 7.93582 9.42622C7.93582 9.57931 7.91655 9.84904 7.87512 10.2346C7.83465 10.6209 7.75931 10.975 7.64947 11.297L6.52794 14.8057C6.43602 15.0875 6.35335 15.4097 6.28148 15.7723C6.20729 16.1324 6.17183 16.4076 6.17183 16.5922C6.17183 17.0581 6.28938 17.3762 6.52505 17.5453C6.76246 17.7144 7.17137 17.7985 7.75217 17.7985C8.02485 17.7985 8.3351 17.7558 8.67984 17.6718C9.02362 17.5879 9.27433 17.5141 9.42984 17.4496ZM9.71426 2.71883C9.71426 3.33015 9.45354 3.85225 8.92958 4.28154C8.40697 4.71236 7.77723 4.92795 7.04053 4.92795C6.30152 4.92795 5.67023 4.71236 5.14165 4.28154C4.61403 3.85208 4.34964 3.33015 4.34964 2.71883C4.34964 2.10869 4.61403 1.58574 5.14165 1.151C5.66926 0.716944 6.30171 0.5 7.04053 0.5C7.77703 0.5 8.40697 0.717455 8.92958 1.151C9.45392 1.58574 9.71426 2.10886 9.71426 2.71883Z" fill="white"/>
</svg>
