<svg width="14" height="14" viewBox="0 0 14 14" fill="none" xmlns="http://www.w3.org/2000/svg">
<circle cx="7" cy="7" r="7" fill="#FF5F05"/>
<path d="M7.51761 2.02587C7.34573 2.00855 7.17309 1.99992 7.00037 2H6.99519C6.70933 2.00473 6.48077 2.23911 6.48321 2.52508V4.58631C6.48253 4.65574 6.49664 4.72449 6.52456 4.78804C6.61405 5.00106 6.83437 5.12848 7.06354 5.09987C7.32826 5.06019 7.52249 4.83046 7.51761 4.56289V3.069C9.44893 3.32253 10.9105 4.94094 10.9665 6.88827C11.0225 8.83559 9.65643 10.5354 7.74289 10.8995C5.82935 11.2637 3.93457 10.1844 3.27162 8.35256C2.60868 6.52074 3.3737 4.47858 5.07699 3.53342C5.30341 3.40516 5.39816 3.12775 5.29746 2.88779L5.29685 2.88634C5.2404 2.74985 5.12841 2.64402 4.98895 2.59527C4.84957 2.54659 4.69601 2.55971 4.56685 2.63128C2.41178 3.83219 1.45474 6.42576 2.31306 8.73885C3.1713 11.052 5.58843 12.3932 8.00509 11.8974C10.4218 11.4015 12.1156 9.21685 11.9938 6.75253C11.8722 4.2883 9.97135 2.28115 7.51761 2.02587Z" fill="white"/>
<path d="M5.01199 5.32039C5.2246 6.06927 5.92021 7.83743 6.44055 8.59027C6.76044 9.07332 7.30666 9.13798 7.68503 8.73773C7.87433 8.5253 7.98824 8.2164 7.99915 7.88623C8.00999 7.55617 7.91666 7.23507 7.7421 7.00127C7.1979 6.27346 5.81675 5.30913 5.23762 5.01504C5.17276 4.9824 5.09955 5.00388 5.05074 5.06979C5.00201 5.1358 4.98681 5.23394 5.01199 5.32039Z" fill="white"/>
</svg>
