<svg width="41" height="24" viewBox="0 0 41 24" fill="none" xmlns="http://www.w3.org/2000/svg">
<path fill-rule="evenodd" clip-rule="evenodd" d="M4.85167 0H1.54306C1.134 0.000594223 0.74186 0.163357 0.452609 0.452609C0.163357 0.741861 0.000594221 1.134 0 1.54306V22.4569C0.000584759 22.866 0.163345 23.2581 0.452598 23.5474C0.741852 23.8367 1.134 23.9994 1.54306 24H4.85167C5.26037 23.9982 5.65181 23.8351 5.9408 23.5461C6.22979 23.2571 6.39294 22.8656 6.39474 22.4569V1.54306C6.39293 1.13437 6.22978 0.742937 5.94079 0.453947C5.6518 0.164957 5.26036 0.00180523 4.85167 0ZM38.6483 0H35.3397C34.931 0.00180523 34.5396 0.164957 34.2506 0.453947C33.9616 0.742937 33.7985 1.13437 33.7966 1.54306V22.4569C33.7984 22.8656 33.9616 23.2571 34.2506 23.5461C34.5396 23.8351 34.931 23.9982 35.3397 24H38.6483C39.0574 23.9994 39.4495 23.8367 39.7388 23.5474C40.028 23.2581 40.1908 22.866 40.1914 22.4569V1.54306C40.1908 1.134 40.028 0.741861 39.7388 0.452609C39.4495 0.163357 39.0574 0.000594223 38.6483 0ZM32.3612 1.77254H7.83013V22.2701H32.3612V1.77254Z" fill="white"/>
</svg>
