<svg width="122" height="122" viewBox="0 0 122 122" fill="none" xmlns="http://www.w3.org/2000/svg">
<g filter="url(#filter0_d_633_2993)">
<circle cx="61" cy="57" r="25" fill="white"/>
<circle cx="61" cy="57" r="24.5" stroke="#DFE6EB"/>
</g>
<path d="M63.6021 48.6378C63.5453 48.0649 63.3014 47.6198 62.8706 47.3026C62.4397 46.9853 61.8549 46.8267 61.1163 46.8267C60.6144 46.8267 60.1906 46.8977 59.845 47.0398C59.4993 47.1771 59.2342 47.3688 59.0495 47.6151C58.8696 47.8613 58.7797 48.1406 58.7797 48.4531C58.7702 48.7135 58.8246 48.9408 58.943 49.1349C59.0661 49.3291 59.2342 49.4972 59.4473 49.6392C59.6603 49.7765 59.9065 49.8973 60.1859 50.0014C60.4653 50.1009 60.7636 50.1861 61.0808 50.2571L62.3876 50.5696C63.0221 50.7116 63.6045 50.901 64.1348 51.1378C64.6651 51.3745 65.1243 51.6657 65.5126 52.0114C65.9009 52.357 66.2015 52.7642 66.4146 53.233C66.6324 53.7017 66.7437 54.2391 66.7484 54.8452C66.7437 55.7353 66.5164 56.5071 66.0666 57.1605C65.6215 57.8092 64.9776 58.3134 64.1348 58.6733C63.2967 59.0284 62.2858 59.206 61.1021 59.206C59.9279 59.206 58.9051 59.026 58.0339 58.6662C57.1674 58.3063 56.4904 57.7737 56.0027 57.0682C55.5197 56.358 55.2664 55.4796 55.2427 54.4332H58.2186C58.2517 54.9209 58.3914 55.3281 58.6376 55.6548C58.8886 55.9768 59.2224 56.2206 59.639 56.3864C60.0604 56.5473 60.5363 56.6278 61.0666 56.6278C61.5874 56.6278 62.0396 56.5521 62.4231 56.4006C62.8114 56.2491 63.112 56.0384 63.3251 55.7685C63.5382 55.4986 63.6447 55.1884 63.6447 54.8381C63.6447 54.5114 63.5476 54.2367 63.3535 54.0142C63.1641 53.7917 62.8848 53.6023 62.5154 53.446C62.1509 53.2898 61.7034 53.1477 61.1731 53.0199L59.5893 52.6222C58.363 52.3239 57.3947 51.8575 56.6845 51.223C55.9743 50.5885 55.6215 49.7339 55.6262 48.6591C55.6215 47.7784 55.8559 47.009 56.3294 46.3509C56.8076 45.6927 57.4634 45.179 58.2967 44.8097C59.13 44.4403 60.077 44.2557 61.1376 44.2557C62.2172 44.2557 63.1594 44.4403 63.9643 44.8097C64.774 45.179 65.4037 45.6927 65.8535 46.3509C66.3033 47.009 66.5353 47.7713 66.5495 48.6378H63.6021Z" fill="black"/>
<path d="M61.4209 71.825C61.0764 72.6385 59.9236 72.6385 59.5791 71.825L56.3253 64.1399C56.0462 63.4805 56.5302 62.75 57.2462 62.75L63.7538 62.75C64.4698 62.75 64.9538 63.4805 64.6747 64.1399L61.4209 71.825Z" fill="#C52525"/>
<defs>
<filter id="filter0_d_633_2993" x="0.5" y="0.5" width="121" height="121" filterUnits="userSpaceOnUse" color-interpolation-filters="sRGB">
<feFlood flood-opacity="0" result="BackgroundImageFix"/>
<feColorMatrix in="SourceAlpha" type="matrix" values="0 0 0 0 0 0 0 0 0 0 0 0 0 0 0 0 0 0 127 0" result="hardAlpha"/>
<feOffset dy="4"/>
<feGaussianBlur stdDeviation="17.75"/>
<feComposite in2="hardAlpha" operator="out"/>
<feColorMatrix type="matrix" values="0 0 0 0 0 0 0 0 0 0 0 0 0 0 0 0 0 0 0.07 0"/>
<feBlend mode="normal" in2="BackgroundImageFix" result="effect1_dropShadow_633_2993"/>
<feBlend mode="normal" in="SourceGraphic" in2="effect1_dropShadow_633_2993" result="shape"/>
</filter>
</defs>
</svg>
