<svg width="23" height="22" viewBox="0 0 23 22" fill="none" xmlns="http://www.w3.org/2000/svg">
<path fill-rule="evenodd" clip-rule="evenodd" d="M21.9873 6.64361L11.7662 0.239499C11.5599 0.110271 11.2977 0.110271 11.0915 0.239499L0.870363 6.64361C0.684602 6.75977 0.571533 6.96356 0.571533 7.18287C0.571533 7.40218 0.684602 7.60596 0.870363 7.72213L11.0915 14.0838C11.1946 14.1484 11.312 14.1807 11.4288 14.1807C11.5456 14.1807 11.663 14.1484 11.7662 14.0838L21.9873 7.72213C22.1731 7.60596 22.2861 7.40218 22.2861 7.18287C22.2861 6.96356 22.1731 6.75977 21.9873 6.64361ZM21.9873 14.2774L20.9968 13.6583L11.7662 19.401C11.663 19.4656 11.5456 19.4979 11.4288 19.4979C11.312 19.4979 11.1946 19.4656 11.0915 19.401L1.86088 13.6583L0.870363 14.2774C0.684602 14.3936 0.571533 14.5974 0.571533 14.8167C0.571533 15.036 0.684602 15.2398 0.870363 15.3559L11.0915 21.7601C11.1946 21.8246 11.312 21.857 11.4288 21.857C11.5456 21.857 11.663 21.8246 11.7662 21.7601L21.9873 15.3559C22.1731 15.2398 22.2861 15.036 22.2861 14.8167C22.2861 14.5974 22.1731 14.3936 21.9873 14.2774ZM20.9968 9.8418L21.9873 10.4609C22.1731 10.577 22.2861 10.7808 22.2861 11.0001C22.2861 11.2194 22.1731 11.4232 21.9873 11.5394L11.7662 17.9011C11.663 17.9657 11.5456 17.998 11.4288 17.998C11.312 17.998 11.1946 17.9657 11.0915 17.9011L0.870363 11.5394C0.684602 11.4232 0.571533 11.2194 0.571533 11.0001C0.571533 10.7808 0.684602 10.577 0.870363 10.4609L1.86088 9.8418L11.0915 15.5844C11.1946 15.649 11.312 15.6813 11.4288 15.6813C11.5456 15.6813 11.663 15.649 11.7662 15.5844L20.9968 9.8418Z" fill="white"/>
</svg>
