<svg width="122" height="122" viewBox="0 0 122 122" fill="none" xmlns="http://www.w3.org/2000/svg">
<g filter="url(#filter0_d_633_2985)">
<circle cx="61" cy="57" r="25" fill="white"/>
<circle cx="61" cy="57" r="24.5" stroke="#DFE6EB"/>
</g>
<path d="M60.677 64L56.5151 49.4545H59.8745L62.2821 59.5611H62.4029L65.0591 49.4545H67.9355L70.5847 59.5824H70.7125L73.1202 49.4545H76.4796L72.3176 64H69.3205L66.5506 54.4901H66.437L63.6742 64H60.677Z" fill="black"/>
<path d="M43.175 57.4209C42.3615 57.0764 42.3615 55.9236 43.175 55.5791L50.8601 52.3253C51.5195 52.0462 52.25 52.5302 52.25 53.2462L52.25 59.7538C52.25 60.4698 51.5195 60.9538 50.8601 60.6747L43.175 57.4209Z" fill="#C52525"/>
<defs>
<filter id="filter0_d_633_2985" x="0.5" y="0.5" width="121" height="121" filterUnits="userSpaceOnUse" color-interpolation-filters="sRGB">
<feFlood flood-opacity="0" result="BackgroundImageFix"/>
<feColorMatrix in="SourceAlpha" type="matrix" values="0 0 0 0 0 0 0 0 0 0 0 0 0 0 0 0 0 0 127 0" result="hardAlpha"/>
<feOffset dy="4"/>
<feGaussianBlur stdDeviation="17.75"/>
<feComposite in2="hardAlpha" operator="out"/>
<feColorMatrix type="matrix" values="0 0 0 0 0 0 0 0 0 0 0 0 0 0 0 0 0 0 0.07 0"/>
<feBlend mode="normal" in2="BackgroundImageFix" result="effect1_dropShadow_633_2985"/>
<feBlend mode="normal" in="SourceGraphic" in2="effect1_dropShadow_633_2985" result="shape"/>
</filter>
</defs>
</svg>
