<svg width="24" height="24" viewBox="0 0 24 24" fill="none" xmlns="http://www.w3.org/2000/svg">
<path fill-rule="evenodd" clip-rule="evenodd" d="M2.09181 14.1162L2.80863 13.3994L1.99403 12.5848L3.33606 12.5848C3.42009 16.9611 4.46568 20.3753 6.1225 20.3753L6.40168 20.3752L11.4077 20.3752L11.4077 21.9839L10.5843 21.1605L9.88399 21.8608L12.0251 24.002L14.1169 21.9101L13.4001 21.1933L12.5615 22.0319L12.5615 20.3752L17.8864 20.3752C19.5427 20.3752 20.5881 16.9635 20.6728 12.5894L21.9858 12.5894L21.1596 13.4156L21.8599 14.116L24.001 11.9749L21.9092 9.88304L21.1924 10.5999L22.0282 11.4357L20.6729 11.4357C20.5888 7.0595 19.5432 3.64555 17.8865 3.64558L12.5603 3.64558L12.5603 1.98596L13.4167 2.84235L14.117 2.14203L11.9759 0.000924541L9.88409 2.09274L10.6009 2.80955L11.4065 2.00394L11.4065 3.64558L6.40171 3.64558L6.1225 3.64558C4.46631 3.64558 3.42088 7.05712 3.33615 11.431L1.99401 11.431L2.84143 10.5836L2.1411 9.88331L-5.23555e-07 12.0244L2.09181 14.1162ZM22.5839 11.9913L22.5322 12.043L22.5322 11.9397L22.5839 11.9913ZM11.981 22.5572L12.0086 22.5848L12.0362 22.5572L11.981 22.5572ZM1.41714 12.0079L1.43581 11.9892L1.43581 12.0266L1.41714 12.0079ZM8.91442 12.0104C8.91442 8.89689 8.43742 6.20141 7.60289 4.76083L17.8864 4.76083C17.9698 4.76083 18.1139 4.86389 18.2931 5.12886C18.5209 5.46566 18.7402 5.98333 18.9289 6.64305C19.3297 8.04412 19.5616 9.96041 19.5616 12.0104C19.5616 14.0604 19.3297 15.9767 18.9289 17.3777C18.7402 18.0374 18.5209 18.5551 18.2931 18.8919C18.1139 19.1569 17.9698 19.2599 17.8864 19.2599L7.60289 19.2599C8.43738 17.8194 8.91442 15.1239 8.91442 12.0104ZM7.16494 6.64305C7.56574 8.04412 7.79764 9.96041 7.79764 12.0104C7.79764 14.0604 7.56577 15.9766 7.16494 17.3777C6.9762 18.0374 6.75698 18.5551 6.52916 18.8919C6.34995 19.1569 6.20582 19.2599 6.12246 19.2599C6.03907 19.2599 5.89498 19.1569 5.71577 18.8919C5.48795 18.5551 5.26873 18.0374 5.07999 17.3777C4.67919 15.9766 4.44729 14.0604 4.44729 12.0104C4.44729 9.96041 4.67915 8.04408 5.07999 6.64305C5.26873 5.98333 5.48795 5.46566 5.71577 5.12886C5.89497 4.86389 6.03911 4.76083 6.12246 4.76083C6.20586 4.76083 6.34995 4.86389 6.52916 5.12886C6.75698 5.46566 6.9762 5.98333 7.16494 6.64305ZM9.6353 17.1823L17.7117 17.1823C17.8765 16.7497 18.165 15.6577 18.3092 13.5562L10.2122 13.5562C10.171 15.1838 9.86193 16.6261 9.6353 17.1823ZM9.74428 12.3833C9.74806 12.4652 9.75118 12.5474 9.75362 12.6298L10.1161 12.6298C10.1136 12.5474 10.1104 12.4652 10.1066 12.3833L9.74428 12.3833ZM10.4241 12.3833C10.4279 12.4652 10.431 12.5474 10.4334 12.6298L10.7506 12.6298C10.7481 12.5474 10.7449 12.4652 10.7411 12.3833L10.4241 12.3833ZM11.0586 12.3833C11.0623 12.4652 11.0655 12.5474 11.0679 12.6298L11.4304 12.6298C11.4279 12.5474 11.4247 12.4652 11.4209 12.3833L11.0586 12.3833ZM11.7384 12.3833C11.7422 12.4652 11.7453 12.5474 11.7477 12.6298L12.1102 12.6298C12.1077 12.5474 12.1045 12.4652 12.1006 12.3833L11.7384 12.3833ZM12.4181 12.3833C12.4219 12.4652 12.4251 12.5474 12.4275 12.6298L12.79 12.6298C12.7875 12.5474 12.7843 12.4652 12.7804 12.3833L12.4181 12.3833ZM13.0979 12.3833C13.1017 12.4652 13.1049 12.5474 13.1073 12.6298L13.4245 12.6298C13.422 12.5474 13.4188 12.4652 13.415 12.3833L13.0979 12.3833ZM13.7325 12.3833C13.7362 12.4652 13.7394 12.5474 13.7418 12.6298L14.1496 12.6298C14.1471 12.5474 14.1439 12.4652 14.1401 12.3833L13.7325 12.3833ZM14.4575 12.3833C14.4613 12.4652 14.4645 12.5474 14.4669 12.6298L14.7841 12.6298C14.7816 12.5474 14.7784 12.4652 14.7746 12.3833L14.4575 12.3833ZM15.0921 12.3833C15.0959 12.4652 15.099 12.5474 15.1014 12.6298L15.5091 12.6298C15.5066 12.5474 15.5035 12.4652 15.4996 12.3833L15.0921 12.3833ZM15.8171 12.3833C15.8209 12.4652 15.8241 12.5474 15.8265 12.6298L16.1437 12.6298C16.1412 12.5474 16.138 12.4652 16.1342 12.3833L15.8171 12.3833ZM16.4517 12.3833C16.4555 12.4652 16.4586 12.5474 16.461 12.6298L16.8235 12.6298C16.821 12.5474 16.8178 12.4652 16.814 12.3833L16.4517 12.3833ZM17.1314 12.3833C17.1352 12.4652 17.1384 12.5474 17.1408 12.6298L17.5033 12.6298C17.5008 12.5474 17.4976 12.4652 17.4938 12.3833L17.1314 12.3833ZM17.8112 12.3833C17.815 12.4652 17.8182 12.5474 17.8206 12.6298L18.1378 12.6298C18.1353 12.5474 18.1321 12.4652 18.1283 12.3833L17.8112 12.3833ZM18.4458 12.3833C18.4496 12.4652 18.4527 12.5474 18.4551 12.6298L18.8176 12.6298C18.8151 12.5474 18.8119 12.4652 18.8081 12.3833L18.4458 12.3833ZM9.7602 13.0736C9.7602 12.9942 9.75957 12.9149 9.75831 12.8358L10.1209 12.8358C10.1221 12.9149 10.1228 12.9941 10.1228 13.0736L10.1228 13.0823L9.7602 13.0823L9.7602 13.0736ZM10.44 13.0736C10.44 12.9942 10.4394 12.9149 10.4381 12.8358L10.7553 12.8358C10.7566 12.9149 10.7572 12.9941 10.7572 13.0736L10.7572 13.0823L10.44 13.0823L10.44 13.0736ZM11.0745 13.0736C11.0745 12.9942 11.0739 12.9149 11.0726 12.8358L11.4351 12.8358C11.4364 12.9149 11.437 12.9941 11.437 13.0736L11.437 13.0823L11.0745 13.0823L11.0745 13.0736ZM11.7543 13.0736C11.7543 12.9942 11.7537 12.9149 11.7524 12.8358L12.1149 12.8358C12.1162 12.9149 12.1169 12.9941 12.1169 13.0736L12.1169 13.0823L11.7543 13.0823L11.7543 13.0736ZM12.4341 13.0736C12.4341 12.9942 12.4335 12.9149 12.4322 12.8358L12.7947 12.8358C12.796 12.9149 12.7967 12.9941 12.7967 13.0736L12.7967 13.0823L12.4341 13.0823L12.4341 13.0736ZM13.1139 13.0736C13.1139 12.9942 13.1133 12.9149 13.112 12.8358L13.4292 12.8358C13.4305 12.9149 13.4311 12.9941 13.4311 13.0736L13.4311 13.0823L13.1139 13.0823L13.1139 13.0736ZM13.7484 13.0736C13.7484 12.9942 13.7478 12.9149 13.7465 12.8358L14.1544 12.8358C14.1556 12.9149 14.1563 12.9941 14.1563 13.0736L14.1563 13.0823L13.7484 13.0823L13.7484 13.0736ZM14.4735 13.0736C14.4735 12.9942 14.4729 12.9149 14.4716 12.8358L14.7888 12.8358C14.7901 12.9149 14.7908 12.9941 14.7908 13.0736L14.7908 13.0823L14.4735 13.0823L14.4735 13.0736ZM15.108 13.0736C15.108 12.9942 15.1074 12.9149 15.1061 12.8358L15.5139 12.8358C15.5152 12.9149 15.5159 12.9941 15.5159 13.0736L15.5159 13.0823L15.108 13.0823L15.108 13.0736ZM15.8331 13.0736C15.8331 12.9942 15.8325 12.9149 15.8312 12.8358L16.1485 12.8358C16.1497 12.9149 16.1504 12.9941 16.1504 13.0736L16.1504 13.0823L15.8331 13.0823L15.8331 13.0736ZM16.4676 13.0736C16.4676 12.9942 16.467 12.9149 16.4657 12.8358L16.8283 12.8358C16.8295 12.9149 16.8302 12.9941 16.8302 13.0736L16.8302 13.0823L16.4676 13.0823L16.4676 13.0736ZM17.1474 13.0736C17.1474 12.9942 17.1468 12.9149 17.1455 12.8358L17.5081 12.8358C17.5093 12.9149 17.51 12.9941 17.51 13.0736L17.51 13.0823L17.1474 13.0823L17.1474 13.0736ZM17.8272 13.0736C17.8272 12.9942 17.8266 12.9149 17.8253 12.8358L18.1425 12.8358C18.1438 12.9149 18.1445 12.9941 18.1445 13.0736L18.1445 13.0823L17.8272 13.0823L17.8272 13.0736ZM18.4617 13.0736C18.4617 12.9942 18.4611 12.9149 18.4598 12.8358L18.8223 12.8358C18.8236 12.9149 18.8243 12.9941 18.8243 13.0736L18.8243 13.0823L18.4617 13.0823L18.4617 13.0736ZM9.75866 13.2883C9.75748 13.3713 9.7556 13.4541 9.75305 13.5366L10.1155 13.5366C10.1181 13.4541 10.12 13.3713 10.1212 13.2883L9.75866 13.2883ZM10.4385 13.2883C10.4373 13.3713 10.4354 13.4541 10.4329 13.5366L10.75 13.5366C10.7526 13.4541 10.7545 13.3713 10.7557 13.2883L10.4385 13.2883ZM11.073 13.2883C11.0718 13.3713 11.0699 13.4541 11.0673 13.5366L11.4298 13.5366C11.4324 13.4541 11.4343 13.3713 11.4355 13.2883L11.073 13.2883ZM11.7528 13.2883C11.7516 13.3713 11.7497 13.4541 11.7471 13.5366L12.1096 13.5366C12.1122 13.4541 12.1141 13.3713 12.1153 13.2883L11.7528 13.2883ZM12.4326 13.2883C12.4314 13.3713 12.4295 13.4541 12.4269 13.5366L12.7894 13.5366C12.792 13.4541 12.7939 13.3713 12.7951 13.2883L12.4326 13.2883ZM13.1124 13.2883C13.1112 13.3713 13.1093 13.4541 13.1067 13.5366L13.4239 13.5366C13.4265 13.4541 13.4284 13.3713 13.4296 13.2883L13.1124 13.2883ZM13.7469 13.2883C13.7457 13.3713 13.7438 13.4541 13.7412 13.5366L14.149 13.5366C14.1516 13.4541 14.1535 13.3713 14.1547 13.2883L13.7469 13.2883ZM14.472 13.2883C14.4708 13.3713 14.4689 13.4541 14.4663 13.5366L14.7835 13.5366C14.7861 13.4541 14.788 13.3713 14.7892 13.2883L14.472 13.2883ZM15.1065 13.2883C15.1053 13.3713 15.1034 13.4541 15.1008 13.5366L15.5086 13.5366C15.5112 13.4541 15.5131 13.3713 15.5143 13.2883L15.1065 13.2883ZM15.8316 13.2883C15.8304 13.3713 15.8285 13.4541 15.8259 13.5366L16.1431 13.5366C16.1457 13.4541 16.1476 13.3713 16.1488 13.2883L15.8316 13.2883ZM16.4661 13.2883C16.4649 13.3713 16.463 13.4541 16.4605 13.5366L16.8229 13.5366C16.8255 13.4541 16.8274 13.3713 16.8286 13.2883L16.4661 13.2883ZM17.1459 13.2883C17.1447 13.3713 17.1428 13.4541 17.1402 13.5366L17.5027 13.5366C17.5053 13.4541 17.5072 13.3713 17.5084 13.2883L17.1459 13.2883ZM17.8257 13.2883C17.8245 13.3713 17.8226 13.4541 17.82 13.5366L18.1372 13.5366C18.1398 13.4541 18.1417 13.3713 18.1429 13.2883L17.8257 13.2883ZM18.4602 13.2883C18.459 13.3713 18.4571 13.4541 18.4546 13.5366L18.817 13.5366C18.8196 13.4541 18.8215 13.3713 18.8227 13.2883L18.4602 13.2883ZM9.73215 13.9892C9.73719 13.9072 9.74156 13.8251 9.74525 13.7427L10.1076 13.7427C10.1038 13.8251 10.0994 13.9072 10.0943 13.9892L9.73215 13.9892ZM18.4337 13.9892C18.4387 13.9072 18.4431 13.8251 18.4468 13.7427L18.8091 13.7427C18.8053 13.8251 18.8009 13.9072 18.7958 13.9892L18.4337 13.9892ZM9.71803 14.1952C9.71175 14.2782 9.70478 14.361 9.69713 14.4435L10.0586 14.4435C10.0664 14.361 10.0735 14.2782 10.0799 14.1952L9.71803 14.1952ZM18.4195 14.1952C18.4132 14.2782 18.4063 14.361 18.3986 14.4435L18.7601 14.4435C18.7679 14.361 18.775 14.2782 18.7814 14.1952L18.4195 14.1952ZM9.64803 14.896C9.65821 14.8141 9.66772 14.732 9.67655 14.6495L10.0377 14.6495C10.0287 14.732 10.0191 14.8142 10.0087 14.896L9.64803 14.896ZM18.3495 14.896C18.3597 14.8141 18.3692 14.732 18.3781 14.6495L18.7392 14.6495C18.7302 14.732 18.7206 14.8142 18.7102 14.896L18.3495 14.896ZM9.62089 15.102C9.60941 15.1845 9.59726 15.2667 9.58442 15.3485L9.94397 15.3485C9.95703 15.2667 9.9694 15.1845 9.98108 15.102L9.62089 15.102ZM18.3224 15.102C18.3109 15.1845 18.2988 15.2667 18.2859 15.3485L18.6455 15.3485C18.6585 15.2667 18.6709 15.1845 18.6826 15.102L18.3224 15.102ZM9.50559 15.8029C9.52128 15.7205 9.53627 15.6377 9.55055 15.5546L9.9095 15.5546C9.89495 15.6377 9.87968 15.7205 9.86371 15.8029L9.50559 15.8029ZM18.2071 15.8029C18.2228 15.7205 18.2378 15.6377 18.2521 15.5546L18.611 15.5546C18.5965 15.6377 18.5812 15.7205 18.5652 15.8029L18.2071 15.8029ZM9.46478 16.0089C9.44767 16.092 9.42984 16.1748 9.41131 16.2572L9.76768 16.2572C9.78655 16.1748 9.80471 16.0921 9.82215 16.0089L9.46478 16.0089ZM18.1663 16.0089C18.1492 16.092 18.1313 16.1748 18.1128 16.2572L18.4692 16.2572C18.4881 16.1748 18.5062 16.0921 18.5237 16.0089L18.1663 16.0089ZM9.3015 16.7097C9.32281 16.628 9.34342 16.5458 9.36332 16.4632L9.71877 16.4632C9.69848 16.5458 9.67747 16.628 9.65574 16.7097L9.3015 16.7097ZM18.003 16.7097C18.0243 16.628 18.0449 16.5458 18.0648 16.4632L18.4203 16.4632C18.4 16.5458 18.379 16.628 18.3573 16.7097L18.003 16.7097ZM9.24608 16.9157C9.22315 16.9984 9.19951 17.0805 9.17516 17.1622L9.52687 17.1622C9.55171 17.0806 9.57583 16.9984 9.59922 16.9157L9.24608 16.9157ZM17.9476 16.9157C17.9247 16.9984 17.901 17.0805 17.8767 17.1622L18.2284 17.1622C18.2532 17.0806 18.2773 16.9984 18.3007 16.9157L17.9476 16.9157ZM9.03151 17.6148C9.05905 17.5331 9.08587 17.4509 9.11196 17.3683L9.46236 17.3683C9.43571 17.451 9.40832 17.5331 9.3802 17.6148L9.03151 17.6148ZM9.71132 17.6148C9.73886 17.5331 9.76568 17.4509 9.79177 17.3683L10.0968 17.3683C10.0702 17.451 10.0428 17.5331 10.0147 17.6148L9.71132 17.6148ZM10.3458 17.6148C10.3733 17.5331 10.4002 17.4509 10.4263 17.3683L10.7766 17.3683C10.75 17.451 10.7226 17.5331 10.6945 17.6148L10.3458 17.6148ZM11.0256 17.6148C11.0531 17.5331 11.08 17.4509 11.1061 17.3683L11.4547 17.3683C11.428 17.451 11.4005 17.5331 11.3723 17.6148L11.0256 17.6148ZM11.7035 17.6148C11.7311 17.5331 11.758 17.4509 11.7841 17.3683L12.1345 17.3683C12.1078 17.451 12.0803 17.5331 12.0521 17.6148L11.7035 17.6148ZM12.3833 17.6148C12.4109 17.5331 12.4378 17.4509 12.4639 17.3683L12.7707 17.3683C12.7441 17.451 12.7167 17.5331 12.6886 17.6148L12.3833 17.6148ZM13.0197 17.6148C13.0472 17.5331 13.0741 17.4509 13.1001 17.3683L13.4941 17.3683C13.4674 17.451 13.4399 17.5331 13.4117 17.6148L13.0197 17.6148ZM13.7429 17.6148C13.7705 17.5331 13.7974 17.4509 13.8235 17.3683L14.1303 17.3683C14.1037 17.451 14.0763 17.5331 14.0482 17.6148L13.7429 17.6148ZM14.3793 17.6148C14.4068 17.5331 14.4337 17.4509 14.4598 17.3683L14.8519 17.3683C14.8252 17.451 14.7976 17.5331 14.7694 17.6148L14.3793 17.6148ZM15.1007 17.6148C15.1284 17.5331 15.1553 17.4509 15.1815 17.3683L15.49 17.3683C15.4633 17.451 15.4359 17.5331 15.4078 17.6148L15.1007 17.6148ZM15.7389 17.6148C15.7665 17.5331 15.7933 17.4509 15.8194 17.3683L16.168 17.3683C16.1413 17.451 16.1138 17.5331 16.0856 17.6148L15.7389 17.6148ZM16.4168 17.6148C16.4444 17.5331 16.4713 17.4509 16.4974 17.3683L16.8478 17.3683C16.8211 17.451 16.7936 17.5331 16.7654 17.6148L16.4168 17.6148ZM17.0966 17.6148C17.1242 17.5331 17.1511 17.4509 17.1772 17.3683L17.4841 17.3683C17.4574 17.451 17.43 17.5331 17.4019 17.6148L17.0966 17.6148ZM17.733 17.6148C17.7606 17.5331 17.7874 17.4509 17.8135 17.3683L18.1639 17.3683C18.1372 17.451 18.1098 17.5331 18.0817 17.6148L17.733 17.6148ZM8.96012 17.8208C8.93048 17.9041 8.90007 17.9869 8.86892 18.0691L9.21403 18.0691C9.24587 17.9869 9.27695 17.9042 9.30726 17.8208L8.96012 17.8208ZM9.63993 17.8208C9.61028 17.9041 9.57987 17.9869 9.54872 18.0691L9.84851 18.0691C9.88035 17.9869 9.91143 17.9042 9.94175 17.8208L9.63993 17.8208ZM10.2744 17.8208C10.2448 17.9041 10.2144 17.9869 10.1832 18.0691L10.5283 18.0691C10.5602 17.9869 10.5912 17.9042 10.6216 17.8208L10.2744 17.8208ZM10.9542 17.8208C10.9246 17.9041 10.8942 17.9869 10.863 18.0691L11.2057 18.0691C11.2376 17.9869 11.2688 17.9042 11.2992 17.8208L10.9542 17.8208ZM11.6319 17.8208C11.6022 17.9041 11.5717 17.9869 11.5405 18.0691L11.8855 18.0691C11.9174 17.9869 11.9486 17.9042 11.979 17.8208L11.6319 17.8208ZM12.3117 17.8208C12.282 17.9041 12.2515 17.9869 12.2203 18.0691L12.5224 18.0691C12.5542 17.9869 12.5853 17.9042 12.6156 17.8208L12.3117 17.8208ZM12.9483 17.8208C12.9187 17.9041 12.8883 17.9869 12.8571 18.0691L13.2451 18.0691C13.277 17.9869 13.3082 17.9042 13.3386 17.8208L12.9483 17.8208ZM13.6713 17.8208C13.6416 17.9041 13.6111 17.9869 13.5799 18.0691L13.882 18.0691C13.9139 17.9869 13.9449 17.9042 13.9753 17.8208L13.6713 17.8208ZM14.3079 17.8208C14.2783 17.9041 14.2479 17.9869 14.2167 18.0691L14.6023 18.0691C14.6343 17.9869 14.6656 17.9042 14.696 17.8208L14.3079 17.8208ZM15.0289 17.8208C14.9991 17.9041 14.9685 17.9869 14.9372 18.0691L15.2416 18.0691C15.2735 17.9869 15.3046 17.9042 15.3349 17.8208L15.0289 17.8208ZM15.6675 17.8208C15.6379 17.9041 15.6075 17.9869 15.5763 18.0691L15.919 18.0691C15.9509 17.9869 15.9821 17.9042 16.0125 17.8208L15.6675 17.8208ZM16.3452 17.8208C16.3155 17.9041 16.285 17.9869 16.2538 18.0691L16.5988 18.0691C16.6307 17.9869 16.6619 17.9042 16.6923 17.8208L16.3452 17.8208ZM17.025 17.8208C16.9953 17.9041 16.9648 17.9869 16.9336 18.0691L17.2357 18.0691C17.2676 17.9869 17.2986 17.9042 17.329 17.8208L17.025 17.8208ZM17.6616 17.8208C17.632 17.9041 17.6016 17.9869 17.5704 18.0691L17.9156 18.0691C17.9474 17.9869 17.9785 17.9042 18.0088 17.8208L17.6616 17.8208ZM8.68756 18.5216C8.72207 18.44 8.75582 18.3579 8.78882 18.2751L9.13209 18.2751C9.09831 18.3579 9.06375 18.4401 9.02843 18.5216L8.68756 18.5216ZM9.36736 18.5216C9.40187 18.44 9.43563 18.3579 9.46862 18.2751L9.76657 18.2751C9.73279 18.3579 9.69824 18.4401 9.66292 18.5216L9.36736 18.5216ZM10.0018 18.5216C10.0364 18.44 10.0701 18.3579 10.1031 18.2751L10.4464 18.2751C10.4126 18.3579 10.378 18.4401 10.3427 18.5216L10.0018 18.5216ZM10.6817 18.5216C10.7162 18.44 10.7499 18.3579 10.7829 18.2751L11.1235 18.2751C11.0897 18.3579 11.055 18.4401 11.0196 18.5216L10.6817 18.5216ZM11.3586 18.5216C11.3932 18.44 11.4271 18.3579 11.4601 18.2751L11.8033 18.2751C11.7695 18.3579 11.7348 18.4401 11.6994 18.5216L11.3586 18.5216ZM12.0384 18.5216C12.073 18.44 12.1069 18.3579 12.14 18.2751L12.4405 18.2751C12.4067 18.3579 12.3721 18.4401 12.3368 18.5216L12.0384 18.5216ZM12.6757 18.5216C12.7103 18.44 12.744 18.3579 12.777 18.2751L13.163 18.2751C13.1291 18.3579 13.0944 18.4401 13.059 18.5216L12.6757 18.5216ZM13.398 18.5216C13.4326 18.44 13.4665 18.3579 13.4996 18.2751L13.8001 18.2751C13.7663 18.3579 13.7317 18.4401 13.6964 18.5216L13.398 18.5216ZM14.0354 18.5216C14.0699 18.44 14.1036 18.3579 14.1366 18.2751L14.5199 18.2751C14.486 18.3579 14.4512 18.4401 14.4157 18.5216L14.0354 18.5216ZM14.7549 18.5216C14.7896 18.44 14.8235 18.3579 14.8567 18.2751L15.1597 18.2751C15.1259 18.3579 15.0914 18.4401 15.056 18.5216L14.7549 18.5216ZM15.395 18.5216C15.4295 18.44 15.4632 18.3579 15.4962 18.2751L15.8368 18.2751C15.803 18.3579 15.7683 18.4401 15.7329 18.5216L15.395 18.5216ZM16.0719 18.5216C16.1065 18.44 16.1404 18.3579 16.1735 18.2751L16.5167 18.2751C16.4828 18.3579 16.4481 18.4401 16.4127 18.5216L16.0719 18.5216ZM16.7517 18.5216C16.7863 18.44 16.8202 18.3579 16.8533 18.2751L17.1538 18.2751C17.12 18.3579 17.0854 18.4401 17.0501 18.5216L16.7517 18.5216ZM17.3891 18.5216C17.4236 18.44 17.4573 18.3579 17.4903 18.2751L17.8336 18.2751C17.8081 18.3378 17.7821 18.4001 17.7556 18.462C17.7021 18.5032 17.6574 18.5216 17.6237 18.5216L17.3891 18.5216Z" fill="white"/>
</svg>
