<svg width="21" height="21" viewBox="0 0 21 21" fill="none" xmlns="http://www.w3.org/2000/svg">
<path fill-rule="evenodd" clip-rule="evenodd" d="M1.23047 19.7695L1.23047 17.3247L-1.60654e-07 17.3247L0 21L3.67537 21L3.67537 19.7695L1.23047 19.7695ZM19.7689 1.23047L19.7689 3.67533L20.9993 3.67533L20.9993 2.89679e-06L17.324 3.05744e-06L17.324 1.23047L19.7689 1.23047ZM17.324 21L17.324 19.7695L19.7689 19.7695L19.7689 17.3247L20.9993 17.3247L20.9993 21L17.324 21ZM-7.57285e-07 3.67533L1.23047 3.67533L1.23047 1.23047L3.67537 1.23047L3.67537 3.65404e-06L-9.17939e-07 3.8147e-06L-7.57285e-07 3.67533ZM9.92578 2.17383L4.94366 2.17383L4.66573 2.17383C3.01689 2.17383 1.97621 5.57088 1.89222 9.92578L-4.84069e-07 9.92578L-4.3387e-07 11.0742L1.89222 11.0742C1.97621 15.4291 3.01689 18.8262 4.66573 18.8262L4.94362 18.8261L9.92578 18.8261L9.92578 21L11.0742 21L11.0742 18.8261L16.3753 18.8261C18.0241 18.8261 19.0648 15.4291 19.1488 11.0742L21 11.0742L21 9.92578L19.1488 9.92578C19.0648 5.57086 18.0241 2.17379 16.3753 2.17383L11.0742 2.17383L11.0742 -4.84069e-07L9.92578 -4.3387e-07L9.92578 2.17383ZM11.0742 17.716L16.3753 17.716C16.4583 17.716 16.6017 17.6134 16.7801 17.3497C17.0069 17.0144 17.2251 16.4992 17.4129 15.8425C17.7742 14.5796 17.9976 12.8962 18.0366 11.0742L11.0742 11.0742L11.0742 17.716ZM11.0742 9.92578L18.0366 9.92578C17.9976 8.10379 17.7742 6.42034 17.4129 5.15745C17.2251 4.50077 17.0069 3.9855 16.7801 3.65025C16.6017 3.38651 16.4583 3.28393 16.3753 3.28393L11.0742 3.28393L11.0742 9.92578ZM9.92578 3.28393L9.92578 9.92578L7.43925 9.92578C7.38421 7.0714 6.9182 4.62851 6.13928 3.28393L9.92578 3.28393ZM9.92578 11.0742L9.92578 17.716L6.13928 17.716C6.91816 16.3714 7.38419 13.9286 7.43925 11.0742L9.92578 11.0742ZM3.62804 15.8425C3.26677 14.5796 3.04337 12.8962 3.00439 11.0742L6.327 11.0742C6.28803 12.8962 6.06466 14.5796 5.70335 15.8425C5.51549 16.4992 5.29728 17.0144 5.07051 17.3497C4.89213 17.6134 4.74867 17.716 4.6657 17.716C4.58269 17.716 4.43926 17.6134 4.26088 17.3497C4.03411 17.0144 3.81591 16.4992 3.62804 15.8425ZM3.00439 9.92578L6.327 9.92578C6.28803 8.10379 6.06463 6.42034 5.70335 5.15745C5.51549 4.50077 5.29728 3.9855 5.07051 3.65025C4.89213 3.38651 4.7487 3.28393 4.6657 3.28393C4.58273 3.28393 4.43926 3.38651 4.26088 3.65025C4.03411 3.9855 3.81591 4.50077 3.62804 5.15745C3.26673 6.42031 3.04335 8.10379 3.00439 9.92578Z" fill="white"/>
</svg>
